<svg width="123" height="135" viewBox="0 0 123 135" fill="none" xmlns="http://www.w3.org/2000/svg">
<mask id="path-1-inside-1_319_1605" fill="white">
<path d="M69 39C96.1764 42.6826 117.192 64.6731 119.64 91.9885L123 129.492C94.1068 132.439 69 109.763 69 80.7198V39Z"/>
</mask>
<path d="M69 39C96.1764 42.6826 117.192 64.6731 119.64 91.9885L123 129.492C94.1068 132.439 69 109.763 69 80.7198V39Z" fill="white"/>
<path d="M112.668 92.6132L116.028 130.117L129.972 128.867L126.612 91.3638L112.668 92.6132ZM76 80.7198V39H62V80.7198H76ZM122.29 122.528C97.522 125.054 76 105.616 76 80.7198H62C62 113.91 90.6917 139.824 123.71 136.456L122.29 122.528ZM68.06 45.9366C91.9992 49.1805 110.512 68.5516 112.668 92.6132L126.612 91.3638C123.873 60.7947 100.354 36.1846 69.94 32.0634L68.06 45.9366Z" fill="#2F62D7" mask="url(#path-1-inside-1_319_1605)"/>
<mask id="path-3-inside-2_319_1605" fill="white">
<path d="M54 39C26.8236 42.6826 5.80782 64.6731 3.36034 91.9885L0 129.492C28.8932 132.439 54 109.763 54 80.7198V39Z"/>
</mask>
<path d="M54 39C26.8236 42.6826 5.80782 64.6731 3.36034 91.9885L0 129.492C28.8932 132.439 54 109.763 54 80.7198V39Z" fill="white"/>
<path d="M10.3324 92.6132L6.97207 130.117L-6.97207 128.867L-3.61173 91.3638L10.3324 92.6132ZM47 80.7198V39H61V80.7198H47ZM0.710339 122.528C25.478 125.054 47 105.616 47 80.7198H61C61 113.91 32.3083 139.824 -0.710339 136.456L0.710339 122.528ZM54.94 45.9366C31.0008 49.1805 12.4883 68.5516 10.3324 92.6132L-3.61173 91.3638C-0.872707 60.7947 22.6464 36.1846 53.06 32.0634L54.94 45.9366Z" fill="#2F62D7" mask="url(#path-3-inside-2_319_1605)"/>
<path d="M61.0135 0.155909L55.5688 1.96718L55.8904 76.1108L58.1621 69.5741C59.9842 64.331 60.9317 58.8388 60.9663 53.3203L61.1074 30.8208L61.0135 0.155909Z" fill="#2F62D7"/>
<path d="M62.1772 0.103215L67.5351 1.74L67.2373 77.3563L64.885 70.7404C62.981 65.3853 62.0158 59.7255 62.0312 54.0072L62.0925 31.3757L62.1772 0.103215Z" fill="#2F62D7"/>
</svg>
