<svg width="26" height="32" viewBox="0 0 26 32" fill="none" xmlns="http://www.w3.org/2000/svg">
<path d="M8.24996 22.3333H8.26579M8.24996 4.91667H5.08329C4.24344 4.91667 3.43799 5.2503 2.84412 5.84416C2.25026 6.43803 1.91663 7.24348 1.91663 8.08333V27.0833C1.91663 27.9232 2.25026 28.7286 2.84412 29.3225C3.43799 29.9164 4.24344 30.25 5.08329 30.25H20.9166C21.7565 30.25 22.5619 29.9164 23.1558 29.3225C23.7497 28.7286 24.0833 27.9232 24.0833 27.0833V8.08333C24.0833 7.24348 23.7497 6.43803 23.1558 5.84416C22.5619 5.2503 21.7565 4.91667 20.9166 4.91667H17.75H8.24996ZM8.24996 4.91667C8.24996 5.75652 8.58359 6.56197 9.17745 7.15584C9.77132 7.7497 10.5768 8.08333 11.4166 8.08333H14.5833C15.4231 8.08333 16.2286 7.7497 16.8225 7.15584C17.4163 6.56197 17.75 5.75652 17.75 4.91667H8.24996ZM8.24996 4.91667C8.24996 4.07681 8.58359 3.27136 9.17745 2.6775C9.77132 2.08363 10.5768 1.75 11.4166 1.75H14.5833C15.4231 1.75 16.2286 2.08363 16.8225 2.6775C17.4163 3.27136 17.75 4.07681 17.75 4.91667H8.24996ZM13 16H17.75H13ZM13 22.3333H17.75H13ZM8.24996 16H8.26579H8.24996Z" stroke="#FFFEFE" stroke-width="2" stroke-linecap="round" stroke-linejoin="round"/>
</svg>
