<svg width="84" height="93" viewBox="0 0 84 93" fill="none" xmlns="http://www.w3.org/2000/svg">
<mask id="path-1-inside-1_533_1590" fill="white">
<path d="M47.122 26.6342C65.6815 29.1491 80.0337 44.167 81.7052 62.8214L84 88.4334C64.2681 90.4462 47.122 74.9601 47.122 55.1257V26.6342Z"/>
</mask>
<path d="M47.122 26.6342C65.6815 29.1491 80.0337 44.167 81.7052 62.8214L84 88.4334C64.2681 90.4462 47.122 74.9601 47.122 55.1257V26.6342Z" fill="white"/>
<path d="M74.7331 63.4461L77.028 89.0581L90.9721 87.8087L88.6772 62.1967L74.7331 63.4461ZM54.122 55.1257V26.6342H40.122V55.1257H54.122ZM83.2897 81.4696C67.6832 83.0615 54.122 70.8132 54.122 55.1257H40.122C40.122 79.1069 60.8529 97.8308 84.7104 95.3973L83.2897 81.4696ZM46.182 33.5708C61.5043 35.647 73.3532 48.0455 74.7331 63.4461L88.6772 62.1967C86.7142 40.2886 69.8586 22.6511 48.0619 19.6976L46.182 33.5708Z" fill="#2F62D7" mask="url(#path-1-inside-1_533_1590)"/>
<mask id="path-3-inside-2_533_1590" fill="white">
<path d="M36.8781 26.6342C18.3186 29.1491 3.96632 44.167 2.29487 62.8214L3.8147e-06 88.4334C19.7319 90.4462 36.8781 74.9601 36.8781 55.1257V26.6342Z"/>
</mask>
<path d="M36.8781 26.6342C18.3186 29.1491 3.96632 44.167 2.29487 62.8214L3.8147e-06 88.4334C19.7319 90.4462 36.8781 74.9601 36.8781 55.1257V26.6342Z" fill="white"/>
<path d="M9.26694 63.4461L6.97207 89.0581L-6.97206 87.8087L-4.6772 62.1967L9.26694 63.4461ZM29.8781 55.1257V26.6342H43.8781V55.1257H29.8781ZM0.710342 81.4696C16.3168 83.0615 29.8781 70.8132 29.8781 55.1257H43.8781C43.8781 79.1069 23.1471 97.8308 -0.710335 95.3973L0.710342 81.4696ZM37.818 33.5708C22.4957 35.647 10.6469 48.0455 9.26694 63.4461L-4.6772 62.1967C-2.71421 40.2886 14.1414 22.6511 35.9381 19.6976L37.818 33.5708Z" fill="#2F62D7" mask="url(#path-3-inside-2_533_1590)"/>
<path d="M41.6678 0.10647L37.9495 1.34344L38.1691 51.9781L38.8479 50.0249C40.67 44.7818 41.6175 39.2896 41.6521 33.7711L41.7319 21.0484L41.6678 0.10647Z" fill="#2F62D7"/>
<path d="M42.391 0.070484L46.0501 1.18829L45.8468 52.8287L45.1526 50.8763C43.2486 45.5212 42.2833 39.8614 42.2988 34.1431L42.3332 21.4273L42.391 0.070484Z" fill="#2F62D7"/>
</svg>
